<svg width="138" height="55" viewBox="0 0 138 55" fill="none" xmlns="http://www.w3.org/2000/svg">
<g filter="url(#filter0_d)">
<path d="M45.8792 20.1378V24.4148H52.2187V41.4923H56.6535V24.4148H62.993V20.1378H45.8792ZM82.2556 21.378C80.9678 20.4903 79.0405 20.0185 76.663 20.0185C75.5916 20.0185 70.3131 20.1317 70.0906 20.1378L69.253 20.1552V41.4923H73.7166V33.753H76.567C78.2614 33.7904 79.9392 33.4179 81.4582 32.6667C83.5399 31.3716 84.7858 29.0799 84.7361 26.6325C84.7361 24.2442 83.9038 22.4756 82.2556 21.378ZM73.7053 24.4148C74.5778 24.4148 75.8944 24.3521 76.4362 24.3521C79.537 24.3521 80.1695 25.3017 80.1695 26.7238C80.1791 27.5551 79.7996 28.3436 79.1435 28.8563C78.2291 29.2967 77.2153 29.4934 76.2015 29.4246H73.7166L73.7044 24.4148H73.7053ZM94.2104 24.8639C92.0161 24.8473 89.9143 25.7464 88.4128 27.3436C86.8554 28.9363 86.0012 31.0844 86.0413 33.3091C86.0108 35.5451 86.865 37.7027 88.4189 39.3146C89.9204 40.9065 92.0196 41.803 94.2104 41.7882C95.7364 41.8074 97.2327 41.3722 98.5091 40.5375V41.2251H102.915V25.2277L98.5772 26.132C97.2815 25.2834 95.7608 24.8412 94.2104 24.8639ZM97.1864 30.1923C97.9804 31.0348 98.4123 32.1532 98.3896 33.3091C98.4158 34.4736 97.983 35.6025 97.1864 36.4537C96.4658 37.2388 95.4485 37.6862 94.3814 37.6862C93.3152 37.6862 92.297 37.2388 91.5772 36.4537C90.7798 35.6008 90.3497 34.4693 90.3793 33.303C90.354 32.148 90.7842 31.0296 91.5772 30.1871C92.2874 29.3872 93.3074 28.9302 94.3788 28.9302C95.4502 28.9302 96.4701 29.3872 97.1803 30.1871L97.1864 30.1923ZM114.004 31.5971L112.293 30.9434C110.754 30.3742 110.754 30.2036 110.754 29.9712C110.754 29.6065 110.754 28.9355 112.716 28.9355C114.124 28.9389 115.511 29.2758 116.763 29.919L117.983 30.4882V25.8987L117.413 25.6881C115.884 25.1119 114.264 24.8134 112.63 24.8073C108.685 24.8073 106.325 26.6725 106.325 29.7945C106.325 32.9165 108.605 34.0367 110.361 34.6738L112.197 35.3283C113.976 35.9594 114.147 36.1352 114.147 36.465C114.147 36.9316 114.147 37.7105 111.917 37.7105C110.247 37.7062 108.611 37.2336 107.197 36.3458L105.909 35.606V40.3208L106.371 40.5601C108.085 41.4035 109.976 41.8317 111.889 41.8109C116.079 41.8109 118.581 39.8551 118.581 36.5851C118.61 33.5876 116.523 32.5292 114.004 31.5979V31.5971ZM128.844 31.5971L127.134 30.9434C125.594 30.3742 125.594 30.2036 125.594 29.9712C125.594 29.6065 125.594 28.9355 127.555 28.9355C128.963 28.9389 130.35 29.2758 131.602 29.919L132.822 30.4882V25.8987L132.252 25.6881C130.723 25.1119 129.103 24.8134 127.469 24.8073C123.524 24.8073 121.164 26.6725 121.164 29.7945C121.164 32.9165 123.445 34.0367 125.2 34.6738L127.036 35.3283C128.815 35.9594 128.986 36.1352 128.986 36.465C128.986 36.9316 128.986 37.7105 126.757 37.7105C125.086 37.7062 123.45 37.2336 122.037 36.3458L120.748 35.606V40.3208L121.21 40.5601C122.925 41.4035 124.815 41.8317 126.728 41.8109C130.918 41.8109 133.421 39.8551 133.421 36.5851C133.449 33.5876 131.391 32.5292 128.843 31.5979L128.844 31.5971Z" fill="#122F53"/>
<path d="M62.7024 41.5376C63.9837 41.5376 65.0223 40.5014 65.0223 39.2232C65.0223 37.9451 63.9837 36.9089 62.7024 36.9089C61.4211 36.9089 60.3825 37.9451 60.3825 39.2232C60.3825 40.5014 61.4211 41.5376 62.7024 41.5376Z" fill="url(#paint0_linear)"/>
<path d="M18.6315 45.3245C22.9547 45.3245 26.9236 42.7178 27.4803 39.5139L28.3789 31.5622C26.6915 32.4091 26.1471 34.2839 22.59 32.8278C22.59 32.8278 19.073 30.9138 18.0923 30.617C13.2265 29.1383 8.62067 33.1002 8.57704 33.1611L9.85523 39.4217C10.4171 42.6595 14.3572 45.3245 18.6315 45.3245Z" fill="url(#paint1_linear)"/>
<path d="M30.5087 18.3335C30.13 13.1504 26.4926 8.78029 21.4549 7.45646L21.7306 4.90366L23.9266 3.78698L24.0139 3.74259L25.573 2.96012C25.8967 2.79736 26.1428 2.51362 26.257 2.16983C26.3705 1.8269 26.3434 1.45264 26.1803 1.12886L25.9883 0.751124C25.9665 0.709346 25.943 0.668438 25.9177 0.629272C25.5407 0.0400311 24.7782 -0.168858 24.1526 0.146216L23.6815 0.383827L23.6474 0.400364L19.2013 2.6024C18.943 2.7199 18.765 2.96535 18.7345 3.24735L18.3227 7.04825C11.9012 7.06827 6.6698 12.0416 6.21262 18.3335C4.92745 18.5815 4 19.7026 4 21.0064V22.2867C4.00174 23.742 5.15168 24.937 6.60872 25.0005L8.40866 38.9047C8.77074 43.2565 12.2144 46.5404 16.4146 46.5404H20.5414C24.7424 46.5404 28.1844 43.2591 28.5421 38.9543L30.349 24.9805C31.7031 24.8029 32.7169 23.654 32.7195 22.291V21.0116C32.7213 19.7052 31.793 18.5815 30.5078 18.3335H30.5087ZM18.3602 9.09014C23.637 9.09014 27.9706 13.1374 28.4496 18.2813H26.449C25.9796 14.2323 22.5446 11.0842 18.3628 11.0842C14.1819 11.0842 10.7382 14.2323 10.2714 18.2821H8.27081C8.74893 13.1382 13.0808 9.09101 18.3602 9.09101V9.09014ZM24.4972 18.2813H22.282C21.8562 16.463 20.2317 15.1775 18.3602 15.1775C16.4887 15.1775 14.8642 16.463 14.4384 18.2813H12.224C12.6838 15.255 15.2917 13.019 18.3602 13.019C21.4287 13.019 24.0366 15.2558 24.4972 18.2813ZM9.68685 32.4361L8.7245 25.0136H16.3395L15.8466 29.6875C12.9526 29.5935 10.8996 31.1279 9.68685 32.4361ZM26.4542 38.7306C26.1838 41.9875 23.6405 44.4428 20.5405 44.4428H16.4154C13.3146 44.4428 10.7722 41.9875 10.4965 38.681L9.99483 34.8018C10.4538 34.0428 12.3156 31.3681 15.6668 31.4003L15.0474 37.2797C14.9662 38.0482 15.5081 38.7419 16.2593 38.8246L16.6807 38.8716C16.7278 38.8768 16.774 38.8803 16.8211 38.8803C17.5313 38.8742 18.1211 38.332 18.1866 37.627L18.7642 32.1375C18.8732 32.1863 18.9805 32.2307 19.0913 32.2855C22.9538 34.1716 25.6367 33.6041 27.2246 32.7773L26.4551 38.7306H26.4542ZM27.5221 30.4795C27.0021 31.0191 24.5941 33.0749 19.8417 30.7554C19.5381 30.6074 19.2432 30.4821 18.9517 30.3663L19.5154 25.0118H28.2289L27.5221 30.4795ZM30.6448 22.285C30.6448 22.459 30.5767 22.6261 30.4537 22.7489C30.3315 22.8725 30.164 22.9421 29.9904 22.943H6.73262C6.37054 22.943 6.07651 22.6496 6.07564 22.2884V21.0081C6.07651 20.6469 6.37054 20.3536 6.73262 20.3536H29.9904C30.3525 20.3536 30.6456 20.6469 30.6465 21.0081L30.6448 22.285Z" fill="#122F53"/>
<path d="M20.763 40.9335C20.1313 41.0702 19.73 41.6907 19.867 42.3209C20.0031 42.951 20.626 43.3514 21.2568 43.2165C21.8885 43.0807 22.2907 42.4593 22.1555 41.83C22.0901 41.5262 21.906 41.2617 21.6451 41.0937C21.3834 40.9257 21.0666 40.8674 20.763 40.9335ZM21.605 38.3311C21.3877 38.379 21.2211 38.5513 21.1809 38.7698C21.1417 38.9874 21.2377 39.2084 21.4252 39.3286C21.6111 39.4478 21.8528 39.4443 22.0351 39.3172C22.2175 39.191 22.3056 38.9674 22.2585 38.7515C22.1939 38.4556 21.9016 38.2676 21.605 38.332V38.3311ZM14.0109 41.6751C13.7901 41.7229 13.6497 41.9405 13.6977 42.1616C13.7456 42.3818 13.9638 42.5219 14.1845 42.4732C14.4061 42.4253 14.5457 42.2086 14.4986 41.9875C14.475 41.8822 14.4113 41.79 14.3197 41.7308C14.2281 41.6725 14.1173 41.6524 14.0109 41.6751ZM18.5504 39.0622C18.2433 39.1284 18.0068 39.3729 17.951 39.6811C17.8952 39.99 18.0313 40.3016 18.2956 40.4705C18.56 40.6402 18.9003 40.6341 19.1585 40.4557C19.4159 40.2764 19.5407 39.9604 19.4744 39.6549C19.3828 39.2372 18.9692 38.9717 18.5504 39.0622ZM13.935 39.0622C13.5162 39.1536 13.2501 39.5662 13.3417 39.9839C13.4324 40.4017 13.846 40.6672 14.2648 40.5758C14.6836 40.4853 14.9497 40.0727 14.8581 39.6541C14.8144 39.4539 14.6932 39.2781 14.5195 39.1667C14.3468 39.0561 14.1356 39.0187 13.935 39.0622ZM21.1792 37.0273C21.6259 36.9307 21.9697 36.5747 22.0517 36.1273C22.132 35.6791 21.9348 35.2256 21.5509 34.9793C21.167 34.733 20.6714 34.7417 20.2962 35.0019C19.9211 35.2613 19.7405 35.7209 19.8373 36.1656C19.9699 36.7731 20.5702 37.1587 21.1801 37.0273H21.1792ZM16.0647 41.4906C15.7017 41.7177 15.5909 42.1956 15.8178 42.5576C16.0446 42.9197 16.5236 43.0311 16.8866 42.8048C17.2504 42.5794 17.3621 42.1024 17.137 41.7395C17.0279 41.5645 16.8534 41.4401 16.6528 41.3931C16.4512 41.3469 16.2401 41.3818 16.0647 41.4914V41.4906ZM23.8726 37.5356C24.0994 37.8977 24.5793 38.0082 24.9422 37.781C25.306 37.5547 25.416 37.076 25.1891 36.7131C24.9623 36.351 24.4824 36.2405 24.1186 36.4676C23.9441 36.5764 23.8193 36.7496 23.7731 36.9507C23.7268 37.1509 23.7626 37.3615 23.8726 37.5356ZM23.7705 39.7429C23.4066 39.9691 23.2958 40.4479 23.5236 40.8099C23.7504 41.1729 24.2294 41.2834 24.5932 41.0562C24.9571 40.8299 25.067 40.3512 24.8401 39.9892C24.7311 39.8151 24.5566 39.6906 24.3559 39.6445C24.1552 39.5984 23.9441 39.6341 23.7696 39.7429H23.7705ZM13.4979 36.5381C13.1724 36.0203 12.4893 35.8636 11.971 36.1874C11.4519 36.512 11.294 37.1935 11.6185 37.7105C11.9431 38.2284 12.6271 38.3859 13.1454 38.0622C13.3949 37.9064 13.5729 37.6583 13.6383 37.3728C13.7046 37.0874 13.654 36.7862 13.4979 36.5373V36.5381Z" fill="#122F53"/>
</g>
<defs>
<filter id="filter0_d" x="0" y="0" width="138" height="55" filterUnits="userSpaceOnUse" color-interpolation-filters="sRGB">
<feFlood flood-opacity="0" result="BackgroundImageFix"/>
<feColorMatrix in="SourceAlpha" type="matrix" values="0 0 0 0 0 0 0 0 0 0 0 0 0 0 0 0 0 0 127 0" result="hardAlpha"/>
<feOffset dy="4"/>
<feGaussianBlur stdDeviation="2"/>
<feComposite in2="hardAlpha" operator="out"/>
<feColorMatrix type="matrix" values="0 0 0 0 0 0 0 0 0 0 0 0 0 0 0 0 0 0 0.25 0"/>
<feBlend mode="normal" in2="BackgroundImageFix" result="effect1_dropShadow"/>
<feBlend mode="normal" in="SourceGraphic" in2="effect1_dropShadow" result="shape"/>
</filter>
<linearGradient id="paint0_linear" x1="60.3882" y1="39.2232" x2="65.0223" y2="39.2232" gradientUnits="userSpaceOnUse">
<stop stop-color="#59C4C9"/>
<stop offset="0.37" stop-color="#41B1BE"/>
<stop offset="1" stop-color="#0F8BA8"/>
</linearGradient>
<linearGradient id="paint1_linear" x1="8.57704" y1="37.8064" x2="28.3783" y2="37.8064" gradientUnits="userSpaceOnUse">
<stop stop-color="#59C4C9"/>
<stop offset="0.37" stop-color="#41B1BE"/>
<stop offset="1" stop-color="#0F8BA8"/>
</linearGradient>
</defs>
</svg>
